<?xml version="1.0" encoding="UTF-8"?>
<svg xmlns="http://www.w3.org/2000/svg" xmlns:xlink="http://www.w3.org/1999/xlink" width="150px" height="150px" viewBox="0 0 150 150" version="1.1">
<g id="surface1">
<path style=" stroke:none;fill-rule:nonzero;fill:rgb(78.431373%,60.784314%,22.352941%);fill-opacity:1;" d="M 1.171875 26.601562 C 5.679688 26.597656 10.1875 26.597656 14.695312 26.59375 C 14.78125 26.59375 14.871094 26.59375 14.960938 26.59375 C 24.410156 26.589844 33.859375 26.585938 43.308594 26.582031 C 43.515625 26.582031 43.726562 26.582031 43.9375 26.582031 C 48.339844 26.582031 52.742188 26.578125 57.148438 26.578125 C 59.359375 26.578125 61.574219 26.578125 63.785156 26.574219 C 64.121094 26.574219 64.453125 26.574219 64.785156 26.574219 C 69.925781 26.574219 75.066406 26.574219 80.207031 26.570312 C 80.371094 26.570312 80.371094 26.570312 80.542969 26.570312 C 82.324219 26.566406 84.105469 26.566406 85.890625 26.566406 C 91.023438 26.5625 96.15625 26.5625 101.289062 26.558594 C 101.394531 26.558594 101.5 26.558594 101.609375 26.558594 C 103.921875 26.558594 106.238281 26.558594 108.554688 26.558594 C 109.484375 26.558594 110.417969 26.558594 111.351562 26.558594 C 111.453125 26.558594 111.554688 26.558594 111.660156 26.558594 C 114.945312 26.558594 118.234375 26.554688 121.523438 26.550781 C 124.835938 26.550781 128.144531 26.546875 131.457031 26.550781 C 131.914062 26.550781 132.371094 26.550781 132.828125 26.550781 C 132.917969 26.550781 133.007812 26.550781 133.101562 26.550781 C 134.519531 26.550781 135.941406 26.546875 137.363281 26.546875 C 138.761719 26.542969 140.15625 26.542969 141.554688 26.542969 C 142.300781 26.546875 143.046875 26.546875 143.796875 26.542969 C 144.476562 26.539062 145.152344 26.542969 145.832031 26.542969 C 146.078125 26.542969 146.324219 26.542969 146.566406 26.542969 C 146.898438 26.539062 147.230469 26.542969 147.5625 26.542969 C 147.65625 26.542969 147.753906 26.539062 147.851562 26.539062 C 148.46875 26.546875 148.792969 26.683594 149.296875 27.070312 C 149.375 27.070312 149.453125 27.070312 149.53125 27.070312 C 150.179688 27.878906 150.042969 28.78125 150 29.765625 C 149.921875 29.804688 149.84375 29.84375 149.765625 29.882812 C 149.730469 29.96875 149.699219 30.058594 149.664062 30.148438 C 149.480469 30.59375 149.195312 30.910156 148.871094 31.265625 C 148.445312 31.738281 148.089844 32.203125 147.777344 32.757812 C 147.738281 32.816406 147.695312 32.871094 147.65625 32.929688 C 147.578125 32.929688 147.5 32.929688 147.421875 32.929688 C 147.375 33.035156 147.375 33.035156 147.328125 33.140625 C 147.1875 33.398438 147.042969 33.546875 146.835938 33.75 C 146.78125 33.839844 146.730469 33.929688 146.675781 34.019531 C 146.484375 34.335938 146.484375 34.335938 146.183594 34.695312 C 145.957031 34.96875 145.800781 35.1875 145.664062 35.507812 C 145.585938 35.507812 145.507812 35.507812 145.429688 35.507812 C 145.402344 35.570312 145.375 35.632812 145.347656 35.699219 C 145.097656 36.152344 144.75 36.523438 144.40625 36.90625 C 143.96875 37.390625 143.621094 37.855469 143.320312 38.4375 C 143.242188 38.4375 143.164062 38.4375 143.085938 38.4375 C 143.058594 38.5 143.03125 38.5625 143.003906 38.628906 C 142.753906 39.085938 142.398438 39.460938 142.054688 39.847656 C 141.980469 39.929688 141.910156 40.007812 141.832031 40.09375 C 141.765625 40.167969 141.695312 40.242188 141.625 40.320312 C 141.445312 40.542969 141.339844 40.757812 141.210938 41.015625 C 141.070312 41.203125 140.925781 41.390625 140.777344 41.574219 C 140.65625 41.726562 140.65625 41.726562 140.527344 41.882812 C 140.296875 42.160156 140.066406 42.425781 139.828125 42.691406 C 139.542969 43.015625 139.308594 43.332031 139.101562 43.710938 C 139.023438 43.828125 138.945312 43.941406 138.867188 44.0625 C 138.789062 44.0625 138.710938 44.0625 138.632812 44.0625 C 138.585938 44.167969 138.585938 44.167969 138.539062 44.273438 C 138.398438 44.53125 138.253906 44.679688 138.046875 44.882812 C 137.992188 44.972656 137.941406 45.0625 137.886719 45.152344 C 137.695312 45.46875 137.695312 45.46875 137.394531 45.828125 C 137.167969 46.101562 137.011719 46.320312 136.875 46.640625 C 136.796875 46.640625 136.71875 46.640625 136.640625 46.640625 C 136.613281 46.703125 136.585938 46.765625 136.558594 46.832031 C 136.308594 47.285156 135.960938 47.65625 135.617188 48.039062 C 135.179688 48.523438 134.832031 48.988281 134.53125 49.570312 C 134.453125 49.570312 134.375 49.570312 134.296875 49.570312 C 134.269531 49.632812 134.238281 49.695312 134.210938 49.761719 C 134.027344 50.105469 133.824219 50.425781 133.59375 50.742188 C 133.515625 50.742188 133.4375 50.742188 133.359375 50.742188 C 133.3125 50.847656 133.3125 50.847656 133.265625 50.953125 C 133.125 51.210938 132.980469 51.359375 132.773438 51.5625 C 132.71875 51.652344 132.667969 51.742188 132.613281 51.832031 C 132.125 52.636719 131.476562 53.34375 130.84375 54.035156 C 130.636719 54.289062 130.480469 54.5625 130.3125 54.84375 C 130.167969 55.035156 130.023438 55.222656 129.875 55.40625 C 129.789062 55.507812 129.710938 55.613281 129.625 55.71875 C 129.398438 55.984375 129.171875 56.246094 128.9375 56.507812 C 128.582031 56.902344 128.332031 57.304688 128.085938 57.773438 C 128.007812 57.773438 127.929688 57.773438 127.851562 57.773438 C 127.824219 57.835938 127.800781 57.898438 127.769531 57.964844 C 127.519531 58.417969 127.171875 58.789062 126.828125 59.171875 C 126.390625 59.65625 126.042969 60.121094 125.742188 60.703125 C 125.664062 60.703125 125.585938 60.703125 125.507812 60.703125 C 125.460938 60.804688 125.460938 60.804688 125.410156 60.910156 C 125.117188 61.476562 124.710938 61.972656 124.253906 62.417969 C 123.960938 62.722656 123.804688 63.011719 123.632812 63.398438 C 123.554688 63.398438 123.476562 63.398438 123.398438 63.398438 C 123.371094 63.464844 123.339844 63.527344 123.3125 63.597656 C 122.996094 64.179688 122.515625 64.660156 122.070312 65.148438 C 121.859375 65.410156 121.695312 65.6875 121.523438 65.976562 C 121.378906 66.167969 121.234375 66.355469 121.085938 66.539062 C 121.003906 66.640625 120.921875 66.746094 120.835938 66.851562 C 120.609375 67.117188 120.382812 67.378906 120.148438 67.640625 C 119.792969 68.035156 119.542969 68.4375 119.296875 68.90625 C 119.21875 68.90625 119.140625 68.90625 119.0625 68.90625 C 119.035156 68.96875 119.011719 69.03125 118.980469 69.097656 C 118.734375 69.546875 118.390625 69.914062 118.046875 70.296875 C 117.605469 70.785156 117.230469 71.28125 116.875 71.832031 C 116.632812 72.203125 116.355469 72.539062 116.058594 72.867188 C 115.636719 73.339844 115.277344 73.804688 114.964844 74.359375 C 114.925781 74.417969 114.882812 74.472656 114.84375 74.53125 C 114.765625 74.53125 114.6875 74.53125 114.609375 74.53125 C 114.582031 74.597656 114.550781 74.660156 114.523438 74.730469 C 114.347656 75.050781 114.136719 75.304688 113.90625 75.585938 C 113.777344 75.75 113.648438 75.917969 113.519531 76.085938 C 113.449219 76.175781 113.378906 76.265625 113.304688 76.359375 C 113.234375 76.453125 113.160156 76.542969 113.085938 76.640625 C 111.910156 78.15625 111.910156 78.15625 111.601562 78.496094 C 111.160156 78.984375 110.8125 79.453125 110.507812 80.039062 C 110.429688 80.039062 110.351562 80.039062 110.273438 80.039062 C 110.246094 80.101562 110.222656 80.164062 110.191406 80.230469 C 109.941406 80.6875 109.589844 81.0625 109.242188 81.449219 C 109.132812 81.570312 109.132812 81.570312 109.019531 81.695312 C 108.953125 81.769531 108.886719 81.84375 108.816406 81.921875 C 108.632812 82.144531 108.527344 82.359375 108.398438 82.617188 C 108.257812 82.804688 108.113281 82.992188 107.964844 83.175781 C 107.84375 83.328125 107.84375 83.328125 107.714844 83.484375 C 107.492188 83.753906 107.261719 84.015625 107.027344 84.273438 C 106.691406 84.652344 106.425781 85.050781 106.175781 85.492188 C 106.136719 85.550781 106.09375 85.605469 106.054688 85.664062 C 105.976562 85.664062 105.898438 85.664062 105.820312 85.664062 C 105.789062 85.734375 105.757812 85.804688 105.726562 85.875 C 105.585938 86.132812 105.441406 86.28125 105.234375 86.484375 C 105.15625 86.617188 105.15625 86.617188 105.074219 86.753906 C 104.894531 87.054688 104.691406 87.308594 104.46875 87.570312 C 104.265625 87.8125 104.070312 88.058594 103.878906 88.308594 C 103.808594 88.398438 103.738281 88.488281 103.667969 88.582031 C 103.605469 88.664062 103.539062 88.746094 103.476562 88.828125 C 103.261719 89.101562 103.046875 89.371094 102.8125 89.628906 C 102.371094 90.117188 102.023438 90.585938 101.71875 91.171875 C 101.640625 91.171875 101.5625 91.171875 101.484375 91.171875 C 101.457031 91.234375 101.429688 91.296875 101.402344 91.363281 C 101.152344 91.820312 100.800781 92.195312 100.453125 92.582031 C 100.378906 92.664062 100.304688 92.742188 100.230469 92.828125 C 100.164062 92.902344 100.097656 92.976562 100.023438 93.054688 C 99.84375 93.277344 99.738281 93.492188 99.609375 93.75 C 99.46875 93.9375 99.324219 94.125 99.175781 94.308594 C 99.09375 94.410156 99.011719 94.511719 98.925781 94.617188 C 98.695312 94.894531 98.464844 95.160156 98.226562 95.425781 C 97.941406 95.75 97.707031 96.066406 97.5 96.445312 C 97.421875 96.5625 97.34375 96.675781 97.265625 96.796875 C 97.1875 96.796875 97.109375 96.796875 97.03125 96.796875 C 97 96.867188 96.96875 96.9375 96.9375 97.007812 C 96.796875 97.265625 96.652344 97.414062 96.445312 97.617188 C 96.390625 97.707031 96.339844 97.796875 96.285156 97.886719 C 96.09375 98.203125 96.09375 98.203125 95.792969 98.5625 C 95.566406 98.835938 95.410156 99.054688 95.273438 99.375 C 95.195312 99.375 95.117188 99.375 95.039062 99.375 C 95.011719 99.4375 94.984375 99.5 94.957031 99.566406 C 94.707031 100.019531 94.359375 100.390625 94.015625 100.773438 C 93.578125 101.257812 93.230469 101.722656 92.929688 102.304688 C 92.851562 102.304688 92.773438 102.304688 92.695312 102.304688 C 92.667969 102.367188 92.636719 102.429688 92.609375 102.496094 C 92.425781 102.839844 92.222656 103.160156 91.992188 103.476562 C 91.914062 103.476562 91.835938 103.476562 91.757812 103.476562 C 91.726562 103.546875 91.695312 103.617188 91.664062 103.6875 C 91.523438 103.945312 91.378906 104.09375 91.171875 104.296875 C 91.117188 104.386719 91.066406 104.476562 91.011719 104.566406 C 90.574219 105.289062 89.996094 105.929688 89.4375 106.558594 C 89.152344 106.882812 88.917969 107.199219 88.710938 107.578125 C 88.632812 107.695312 88.554688 107.808594 88.476562 107.929688 C 88.398438 107.929688 88.320312 107.929688 88.242188 107.929688 C 88.195312 108.03125 88.195312 108.03125 88.144531 108.136719 C 88.007812 108.398438 87.855469 108.617188 87.679688 108.851562 C 87.617188 108.933594 87.554688 109.015625 87.492188 109.097656 C 87.324219 109.308594 87.15625 109.515625 86.984375 109.71875 C 86.769531 109.980469 86.617188 110.199219 86.484375 110.507812 C 86.40625 110.507812 86.328125 110.507812 86.25 110.507812 C 86.222656 110.570312 86.195312 110.632812 86.167969 110.699219 C 85.917969 111.152344 85.570312 111.523438 85.226562 111.90625 C 84.789062 112.390625 84.441406 112.855469 84.140625 113.4375 C 84.0625 113.4375 83.984375 113.4375 83.90625 113.4375 C 83.875 113.503906 83.84375 113.570312 83.8125 113.640625 C 83.660156 113.929688 83.480469 114.175781 83.277344 114.433594 C 83.175781 114.566406 83.175781 114.566406 83.070312 114.699219 C 82.851562 114.960938 82.851562 114.960938 82.601562 115.203125 C 82.328125 115.484375 82.191406 115.78125 82.03125 116.132812 C 81.953125 116.132812 81.875 116.132812 81.796875 116.132812 C 81.769531 116.199219 81.738281 116.261719 81.710938 116.332031 C 81.390625 116.914062 80.914062 117.394531 80.46875 117.882812 C 80.257812 118.144531 80.09375 118.421875 79.921875 118.710938 C 79.777344 118.902344 79.632812 119.089844 79.484375 119.273438 C 79.398438 119.375 79.320312 119.476562 79.234375 119.585938 C 79.007812 119.851562 78.78125 120.113281 78.546875 120.375 C 78.191406 120.769531 77.941406 121.171875 77.695312 121.640625 C 77.617188 121.640625 77.539062 121.640625 77.460938 121.640625 C 77.429688 121.707031 77.398438 121.773438 77.371094 121.839844 C 77.070312 122.40625 76.71875 122.820312 76.171875 123.164062 C 75.8125 123.265625 75.464844 123.300781 75.09375 123.324219 C 75.003906 123.332031 74.914062 123.339844 74.820312 123.34375 C 74.335938 123.355469 74.042969 123.3125 73.667969 122.992188 C 73.566406 122.894531 73.464844 122.796875 73.359375 122.695312 C 73.242188 122.65625 73.128906 122.617188 73.007812 122.578125 C 72.539062 121.949219 72.539062 121.949219 72.539062 121.640625 C 72.460938 121.640625 72.382812 121.640625 72.304688 121.640625 C 72.183594 121.445312 72.066406 121.25 71.953125 121.054688 C 71.875 121.015625 71.796875 120.976562 71.71875 120.9375 C 71.71875 120.820312 71.71875 120.707031 71.71875 120.585938 C 71.640625 120.585938 71.5625 120.585938 71.484375 120.585938 C 71.132812 120.179688 71.132812 120.179688 71.132812 119.882812 C 71.054688 119.882812 70.976562 119.882812 70.898438 119.882812 C 70.859375 119.765625 70.820312 119.652344 70.78125 119.53125 C 70.589844 119.332031 70.394531 119.140625 70.195312 118.945312 C 69.941406 118.640625 69.710938 118.339844 69.492188 118.007812 C 69.28125 117.738281 69.070312 117.472656 68.839844 117.21875 C 68.777344 117.148438 68.714844 117.078125 68.648438 117.003906 C 68.589844 116.9375 68.53125 116.875 68.46875 116.808594 C 68.304688 116.582031 68.253906 116.402344 68.203125 116.132812 C 68.125 116.132812 68.046875 116.132812 67.96875 116.132812 C 67.890625 115.9375 67.8125 115.746094 67.734375 115.546875 C 67.65625 115.546875 67.578125 115.546875 67.5 115.546875 C 67.5 115.46875 67.5 115.390625 67.5 115.3125 C 67.421875 115.273438 67.34375 115.234375 67.265625 115.195312 C 67.144531 115.082031 67.027344 114.964844 66.914062 114.84375 C 66.835938 114.765625 66.757812 114.6875 66.679688 114.609375 C 66.605469 114.300781 66.605469 114.300781 66.5625 114.023438 C 66.496094 114.019531 66.429688 114.019531 66.359375 114.015625 C 65.941406 113.84375 65.820312 113.46875 65.625 113.085938 C 65.425781 112.722656 65.253906 112.480469 64.957031 112.183594 C 64.867188 112.09375 64.78125 112.007812 64.6875 111.914062 C 64.6875 111.835938 64.6875 111.757812 64.6875 111.679688 C 64.609375 111.679688 64.53125 111.679688 64.453125 111.679688 C 64.414062 111.5625 64.375 111.449219 64.335938 111.328125 C 64.238281 111.230469 64.136719 111.128906 64.035156 111.027344 C 63.941406 110.933594 63.847656 110.839844 63.75 110.742188 C 63.75 110.664062 63.75 110.585938 63.75 110.507812 C 63.671875 110.507812 63.59375 110.507812 63.515625 110.507812 C 63.394531 110.3125 63.277344 110.117188 63.164062 109.921875 C 63.085938 109.882812 63.007812 109.84375 62.929688 109.804688 C 62.929688 109.6875 62.929688 109.574219 62.929688 109.453125 C 62.8125 109.414062 62.699219 109.375 62.578125 109.335938 C 62.4375 109.140625 62.4375 109.140625 62.300781 108.898438 C 62.109375 108.570312 61.949219 108.355469 61.675781 108.082031 C 61.394531 107.800781 61.308594 107.59375 61.171875 107.226562 C 60.847656 107 60.847656 107 60.585938 106.875 C 60.472656 106.671875 60.363281 106.472656 60.253906 106.269531 C 60.109375 106.023438 60.109375 106.023438 59.800781 105.738281 C 59.539062 105.476562 59.453125 105.363281 59.414062 105 C 59.335938 105 59.257812 105 59.179688 105 C 59.132812 104.894531 59.089844 104.792969 59.039062 104.683594 C 58.816406 104.277344 58.578125 104.03125 58.242188 103.710938 C 57.773438 103.164062 57.773438 103.164062 57.773438 102.890625 C 57.703125 102.882812 57.632812 102.875 57.558594 102.863281 C 57.210938 102.738281 57.15625 102.574219 56.996094 102.246094 C 56.820312 101.847656 56.820312 101.847656 56.484375 101.601562 C 56.484375 101.484375 56.484375 101.371094 56.484375 101.25 C 56.40625 101.25 56.328125 101.25 56.25 101.25 C 56.25 101.171875 56.25 101.09375 56.25 101.015625 C 56.132812 101.015625 56.019531 101.015625 55.898438 101.015625 C 55.898438 100.859375 55.898438 100.707031 55.898438 100.546875 C 55.820312 100.546875 55.742188 100.546875 55.664062 100.546875 C 55.625 100.429688 55.585938 100.316406 55.546875 100.195312 C 55.449219 100.09375 55.347656 99.996094 55.246094 99.894531 C 55.152344 99.800781 55.058594 99.707031 54.960938 99.609375 C 54.960938 99.53125 54.960938 99.453125 54.960938 99.375 C 54.84375 99.335938 54.730469 99.296875 54.609375 99.257812 C 54.527344 99.101562 54.449219 98.945312 54.375 98.789062 C 54.296875 98.75 54.21875 98.710938 54.140625 98.671875 C 54.023438 98.476562 53.90625 98.28125 53.789062 98.085938 C 53.636719 97.886719 53.480469 97.6875 53.320312 97.492188 C 52.523438 96.511719 52.523438 96.511719 52.382812 96.09375 C 52.058594 95.867188 52.058594 95.867188 51.796875 95.742188 C 51.671875 95.558594 51.671875 95.558594 51.546875 95.339844 C 51.488281 95.230469 51.488281 95.230469 51.421875 95.121094 C 51.328125 94.921875 51.328125 94.921875 51.328125 94.6875 C 51.21875 94.679688 51.21875 94.679688 51.109375 94.671875 C 51.027344 94.640625 50.945312 94.605469 50.859375 94.570312 C 50.714844 94.210938 50.714844 94.210938 50.625 93.867188 C 50.546875 93.867188 50.46875 93.867188 50.390625 93.867188 C 50.339844 93.757812 50.289062 93.644531 50.238281 93.53125 C 50.0625 93.140625 50.0625 93.140625 49.6875 92.929688 C 49.566406 92.785156 49.453125 92.636719 49.34375 92.484375 C 49.136719 92.199219 48.929688 91.925781 48.707031 91.65625 C 48.515625 91.40625 48.515625 91.40625 48.515625 91.171875 C 48.4375 91.171875 48.359375 91.171875 48.28125 91.171875 C 48.160156 90.976562 48.042969 90.78125 47.929688 90.585938 C 47.851562 90.546875 47.773438 90.507812 47.695312 90.46875 C 47.695312 90.351562 47.695312 90.238281 47.695312 90.117188 C 47.617188 90.117188 47.539062 90.117188 47.460938 90.117188 C 47.109375 89.710938 47.109375 89.710938 47.109375 89.414062 C 47.03125 89.414062 46.953125 89.414062 46.875 89.414062 C 46.835938 89.296875 46.796875 89.183594 46.757812 89.0625 C 46.660156 88.964844 46.558594 88.863281 46.457031 88.761719 C 46.363281 88.667969 46.269531 88.574219 46.171875 88.476562 C 46.171875 88.398438 46.171875 88.320312 46.171875 88.242188 C 46.09375 88.242188 46.015625 88.242188 45.9375 88.242188 C 45.816406 88.046875 45.699219 87.851562 45.585938 87.65625 C 45.507812 87.617188 45.429688 87.578125 45.351562 87.539062 C 45.304688 87.460938 45.261719 87.382812 45.210938 87.304688 C 44.957031 86.882812 44.65625 86.515625 44.347656 86.132812 C 44.179688 85.898438 44.179688 85.898438 44.179688 85.664062 C 44.0625 85.625 43.949219 85.585938 43.828125 85.546875 C 43.75 85.351562 43.671875 85.15625 43.59375 84.960938 C 43.269531 84.734375 43.269531 84.734375 43.007812 84.609375 C 42.851562 84.34375 42.714844 84.066406 42.578125 83.792969 C 42.433594 83.519531 42.433594 83.519531 42.070312 83.4375 C 41.914062 83.238281 41.914062 83.238281 41.769531 82.992188 C 41.722656 82.910156 41.671875 82.828125 41.621094 82.746094 C 41.484375 82.5 41.484375 82.5 41.371094 82.25 C 41.25 81.992188 41.25 81.992188 40.898438 81.796875 C 40.757812 81.488281 40.757812 81.488281 40.664062 81.210938 C 40.585938 81.210938 40.507812 81.210938 40.429688 81.210938 C 40.253906 81.015625 40.253906 81.015625 40.0625 80.757812 C 40 80.671875 39.9375 80.589844 39.871094 80.503906 C 39.726562 80.273438 39.726562 80.273438 39.726562 80.039062 C 39.648438 80.039062 39.570312 80.039062 39.492188 80.039062 C 39.371094 79.84375 39.253906 79.648438 39.140625 79.453125 C 39.0625 79.414062 38.984375 79.375 38.90625 79.335938 C 38.90625 79.21875 38.90625 79.105469 38.90625 78.984375 C 38.828125 78.984375 38.75 78.984375 38.671875 78.984375 C 38.671875 78.90625 38.671875 78.828125 38.671875 78.75 C 38.554688 78.75 38.441406 78.75 38.320312 78.75 C 38.320312 78.59375 38.320312 78.441406 38.320312 78.28125 C 38.242188 78.28125 38.164062 78.28125 38.085938 78.28125 C 38.046875 78.164062 38.007812 78.050781 37.96875 77.929688 C 37.871094 77.832031 37.769531 77.730469 37.667969 77.628906 C 37.574219 77.535156 37.480469 77.441406 37.382812 77.34375 C 37.382812 77.265625 37.382812 77.1875 37.382812 77.109375 C 37.304688 77.109375 37.226562 77.109375 37.148438 77.109375 C 37.027344 76.914062 36.910156 76.71875 36.796875 76.523438 C 36.71875 76.484375 36.640625 76.445312 36.5625 76.40625 C 36.371094 76.109375 36.199219 75.800781 36.027344 75.492188 C 35.972656 75.40625 35.917969 75.320312 35.859375 75.234375 C 35.78125 75.234375 35.703125 75.234375 35.625 75.234375 C 35.578125 75.066406 35.578125 75.066406 35.53125 74.890625 C 35.484375 74.773438 35.4375 74.652344 35.390625 74.53125 C 35.273438 74.492188 35.160156 74.453125 35.039062 74.414062 C 34.960938 74.21875 34.882812 74.023438 34.804688 73.828125 C 34.6875 73.75 34.574219 73.671875 34.453125 73.59375 C 34.332031 73.445312 34.214844 73.289062 34.101562 73.132812 C 33.835938 72.761719 33.558594 72.453125 33.222656 72.144531 C 32.945312 71.84375 32.753906 71.503906 32.59375 71.132812 C 32.457031 70.867188 32.457031 70.867188 32.152344 70.589844 C 32.0625 70.5 31.96875 70.40625 31.875 70.3125 C 31.875 70.234375 31.875 70.15625 31.875 70.078125 C 31.796875 70.078125 31.71875 70.078125 31.640625 70.078125 C 31.601562 69.960938 31.5625 69.847656 31.523438 69.726562 C 31.425781 69.628906 31.324219 69.527344 31.222656 69.425781 C 31.128906 69.332031 31.035156 69.238281 30.9375 69.140625 C 30.9375 69.0625 30.9375 68.984375 30.9375 68.90625 C 30.859375 68.90625 30.78125 68.90625 30.703125 68.90625 C 30.117188 68.277344 30.117188 68.277344 30.117188 67.851562 C 30.039062 67.851562 29.960938 67.851562 29.882812 67.851562 C 29.53125 67.445312 29.53125 67.445312 29.53125 67.148438 C 29.453125 67.148438 29.375 67.148438 29.296875 67.148438 C 29.257812 67.03125 29.21875 66.917969 29.179688 66.796875 C 29.03125 66.714844 29.03125 66.714844 28.878906 66.628906 C 28.738281 66.539062 28.738281 66.539062 28.59375 66.445312 C 28.59375 66.289062 28.59375 66.136719 28.59375 65.976562 C 28.515625 65.976562 28.4375 65.976562 28.359375 65.976562 C 28.238281 65.78125 28.121094 65.585938 28.007812 65.390625 C 27.929688 65.351562 27.851562 65.3125 27.773438 65.273438 C 27.585938 64.976562 27.414062 64.671875 27.246094 64.367188 C 27.085938 64.066406 27.085938 64.066406 26.71875 63.984375 C 26.679688 63.792969 26.640625 63.597656 26.601562 63.398438 C 26.523438 63.398438 26.445312 63.398438 26.367188 63.398438 C 26.316406 63.289062 26.265625 63.175781 26.214844 63.0625 C 26.039062 62.671875 26.039062 62.671875 25.664062 62.460938 C 25.542969 62.3125 25.425781 62.15625 25.3125 62 C 25.046875 61.628906 24.769531 61.320312 24.433594 61.011719 C 24.15625 60.710938 23.964844 60.371094 23.804688 60 C 23.667969 59.734375 23.667969 59.734375 23.363281 59.457031 C 23.273438 59.367188 23.179688 59.273438 23.085938 59.179688 C 23.085938 59.101562 23.085938 59.023438 23.085938 58.945312 C 22.96875 58.90625 22.855469 58.867188 22.734375 58.828125 C 22.734375 58.710938 22.734375 58.597656 22.734375 58.476562 C 22.617188 58.4375 22.503906 58.398438 22.382812 58.359375 C 22.242188 58.058594 22.242188 58.058594 22.148438 57.773438 C 22.070312 57.773438 21.992188 57.773438 21.914062 57.773438 C 21.792969 57.578125 21.675781 57.382812 21.5625 57.1875 C 21.484375 57.148438 21.40625 57.109375 21.328125 57.070312 C 21.328125 56.953125 21.328125 56.839844 21.328125 56.71875 C 21.25 56.71875 21.171875 56.71875 21.09375 56.71875 C 20.742188 56.3125 20.742188 56.3125 20.742188 56.015625 C 20.664062 56.015625 20.585938 56.015625 20.507812 56.015625 C 20.46875 55.898438 20.429688 55.785156 20.390625 55.664062 C 20.199219 55.464844 20.003906 55.273438 19.804688 55.078125 C 19.550781 54.773438 19.320312 54.472656 19.101562 54.140625 C 18.890625 53.871094 18.679688 53.605469 18.449219 53.351562 C 18.386719 53.28125 18.324219 53.210938 18.257812 53.136719 C 18.171875 53.039062 18.171875 53.039062 18.078125 52.941406 C 17.914062 52.714844 17.863281 52.535156 17.8125 52.265625 C 17.734375 52.265625 17.65625 52.265625 17.578125 52.265625 C 17.460938 51.976562 17.460938 51.976562 17.34375 51.679688 C 17.265625 51.679688 17.1875 51.679688 17.109375 51.679688 C 17.109375 51.601562 17.109375 51.523438 17.109375 51.445312 C 17.03125 51.40625 16.953125 51.367188 16.875 51.328125 C 16.753906 51.214844 16.636719 51.097656 16.523438 50.976562 C 16.445312 50.898438 16.367188 50.820312 16.289062 50.742188 C 16.167969 50.511719 16.050781 50.277344 15.9375 50.039062 C 15.859375 50.039062 15.78125 50.039062 15.703125 50.039062 C 15.632812 49.917969 15.5625 49.792969 15.492188 49.664062 C 15.449219 49.589844 15.40625 49.515625 15.359375 49.4375 C 15.261719 49.261719 15.164062 49.085938 15.066406 48.910156 C 14.882812 48.609375 14.882812 48.609375 14.566406 48.316406 C 14.480469 48.230469 14.390625 48.140625 14.296875 48.046875 C 14.296875 47.96875 14.296875 47.890625 14.296875 47.8125 C 14.21875 47.8125 14.140625 47.8125 14.0625 47.8125 C 14.023438 47.695312 13.984375 47.582031 13.945312 47.460938 C 13.84375 47.363281 13.746094 47.261719 13.644531 47.160156 C 13.503906 47.019531 13.503906 47.019531 13.359375 46.875 C 13.359375 46.796875 13.359375 46.71875 13.359375 46.640625 C 13.28125 46.640625 13.203125 46.640625 13.125 46.640625 C 13.003906 46.445312 12.886719 46.25 12.773438 46.054688 C 12.695312 46.015625 12.617188 45.976562 12.539062 45.9375 C 12.539062 45.820312 12.539062 45.707031 12.539062 45.585938 C 12.421875 45.546875 12.308594 45.507812 12.1875 45.46875 C 12.046875 45.273438 12.046875 45.273438 11.910156 45.03125 C 11.65625 44.601562 11.371094 44.292969 11.015625 43.945312 C 10.90625 43.800781 10.804688 43.652344 10.699219 43.507812 C 10.472656 43.125 10.472656 43.125 10.195312 43.007812 C 10.082031 42.804688 9.972656 42.605469 9.859375 42.402344 C 9.71875 42.15625 9.71875 42.15625 9.410156 41.871094 C 9.148438 41.609375 9.0625 41.496094 9.023438 41.132812 C 8.945312 41.132812 8.867188 41.132812 8.789062 41.132812 C 8.71875 40.976562 8.71875 40.976562 8.648438 40.816406 C 8.425781 40.410156 8.1875 40.164062 7.851562 39.84375 C 7.382812 39.296875 7.382812 39.296875 7.382812 39.023438 C 7.3125 39.015625 7.242188 39.007812 7.167969 38.996094 C 6.820312 38.871094 6.765625 38.707031 6.605469 38.378906 C 6.429688 37.980469 6.429688 37.980469 6.09375 37.734375 C 6.09375 37.617188 6.09375 37.503906 6.09375 37.382812 C 6.015625 37.382812 5.9375 37.382812 5.859375 37.382812 C 5.859375 37.304688 5.859375 37.226562 5.859375 37.148438 C 5.742188 37.109375 5.628906 37.070312 5.507812 37.03125 C 5.507812 36.914062 5.507812 36.800781 5.507812 36.679688 C 5.429688 36.679688 5.351562 36.679688 5.273438 36.679688 C 5.234375 36.5625 5.195312 36.449219 5.15625 36.328125 C 5.058594 36.226562 4.957031 36.128906 4.855469 36.027344 C 4.761719 35.933594 4.667969 35.839844 4.570312 35.742188 C 4.570312 35.664062 4.570312 35.585938 4.570312 35.507812 C 4.492188 35.507812 4.414062 35.507812 4.335938 35.507812 C 4.21875 35.277344 4.105469 35.042969 3.984375 34.804688 C 3.90625 34.804688 3.828125 34.804688 3.75 34.804688 C 3.628906 34.613281 3.511719 34.414062 3.398438 34.21875 C 3.246094 34.019531 3.089844 33.820312 2.929688 33.625 C 2.132812 32.644531 2.132812 32.644531 1.992188 32.226562 C 1.667969 32 1.667969 32 1.40625 31.875 C 1.28125 31.691406 1.28125 31.691406 1.15625 31.472656 C 1.117188 31.402344 1.074219 31.328125 1.03125 31.253906 C 0.9375 31.054688 0.9375 31.054688 0.9375 30.820312 C 0.863281 30.8125 0.792969 30.800781 0.71875 30.792969 C 0.46875 30.703125 0.46875 30.703125 0.324219 30.484375 C 0.234375 30.234375 0.234375 30.234375 0.234375 29.882812 C 0.15625 29.882812 0.078125 29.882812 0 29.882812 C -0.0078125 29.5625 -0.015625 29.242188 -0.0234375 28.921875 C -0.0234375 28.832031 -0.0273438 28.742188 -0.03125 28.648438 C -0.0390625 28.097656 0 27.757812 0.351562 27.304688 C 0.429688 27.226562 0.507812 27.148438 0.585938 27.070312 C 0.625 26.992188 0.664062 26.914062 0.703125 26.835938 C 0.859375 26.835938 1.011719 26.835938 1.171875 26.835938 C 1.171875 26.757812 1.171875 26.679688 1.171875 26.601562 Z M 1.171875 26.601562 "/>
<path style=" stroke:none;fill-rule:nonzero;fill:rgb(98.039216%,90.980392%,75.294118%);fill-opacity:1;" d="M 74.296875 123.28125 C 74.761719 123.28125 75.226562 123.28125 75.703125 123.28125 C 75.703125 123.320312 75.703125 123.359375 75.703125 123.398438 C 75.238281 123.398438 74.773438 123.398438 74.296875 123.398438 C 74.296875 123.359375 74.296875 123.320312 74.296875 123.28125 Z M 74.296875 123.28125 "/>
</g>
</svg>
