<svg id="SvgjsSvg1034" width="288" height="288" xmlns="http://www.w3.org/2000/svg" version="1.1" xmlns:xlink="http://www.w3.org/1999/xlink" xmlns:svgjs="http://svgjs.com/svgjs"><defs id="SvgjsDefs1035"></defs><g id="SvgjsG1036"><svg xmlns="http://www.w3.org/2000/svg" viewBox="0 0 1280 1280" width="288" height="288"><path fill="#c89b39" d="M0 0 C38.46 -0.02 76.92 -0.04 115.39 -0.06 C116.14 -0.06 116.89 -0.06 117.67 -0.06 C198.29 -0.11 278.92 -0.14 359.55 -0.17 C361.34 -0.17 363.13 -0.17 364.92 -0.17 C402.5 -0.18 440.08 -0.19 477.66 -0.2 C496.54 -0.21 515.42 -0.21 534.3 -0.22 C537.15 -0.22 539.99 -0.22 542.84 -0.22 C586.7 -0.23 630.57 -0.25 674.43 -0.27 C675.84 -0.28 675.84 -0.28 677.29 -0.28 C692.5 -0.29 707.71 -0.29 722.92 -0.3 C766.72 -0.33 810.52 -0.35 854.32 -0.36 C855.22 -0.36 856.12 -0.36 857.05 -0.37 C876.81 -0.37 896.57 -0.37 916.33 -0.38 C924.28 -0.38 932.23 -0.38 940.19 -0.38 C941.06 -0.38 941.93 -0.38 942.82 -0.38 C970.88 -0.38 998.94 -0.4 1027 -0.43 C1055.26 -0.45 1083.51 -0.46 1111.77 -0.45 C1115.67 -0.45 1119.57 -0.45 1123.47 -0.45 C1124.23 -0.45 1125 -0.45 1125.79 -0.45 C1137.91 -0.45 1150.04 -0.46 1162.17 -0.48 C1174.09 -0.5 1186 -0.5 1197.92 -0.49 C1204.29 -0.48 1210.67 -0.48 1217.05 -0.5 C1222.85 -0.52 1228.64 -0.51 1234.44 -0.5 C1236.53 -0.49 1238.62 -0.5 1240.71 -0.51 C1243.54 -0.52 1246.36 -0.51 1249.19 -0.5 C1250 -0.51 1250.82 -0.52 1251.66 -0.53 C1256.94 -0.46 1259.69 0.71 1264 4 C1264.66 4 1265.32 4 1266 4 C1271.52 10.9 1270.36 18.61 1270 27 C1269.34 27.33 1268.68 27.66 1268 28 C1267.71 28.74 1267.42 29.49 1267.12 30.25 C1265.56 34.08 1263.12 36.76 1260.36 39.81 C1256.74 43.84 1253.71 47.8 1251.04 52.53 C1250.7 53.02 1250.35 53.5 1250 54 C1249.34 54 1248.68 54 1248 54 C1247.6 54.9 1247.6 54.9 1247.19 55.81 C1245.99 58.01 1244.75 59.25 1243 61 C1242.55 61.76 1242.09 62.53 1241.62 63.31 C1240 66 1240 66 1237.44 69.06 C1235.5 71.39 1234.16 73.25 1233 76 C1232.34 76 1231.68 76 1231 76 C1230.77 76.54 1230.55 77.07 1230.31 77.62 C1228.18 81.49 1225.21 84.67 1222.26 87.92 C1218.52 92.07 1215.58 96.04 1213 101 C1212.34 101 1211.68 101 1211 101 C1210.77 101.54 1210.55 102.07 1210.31 102.62 C1208.16 106.52 1205.15 109.72 1202.19 113.02 C1201.57 113.72 1200.95 114.41 1200.31 115.12 C1199.73 115.77 1199.15 116.41 1198.55 117.07 C1197.01 118.98 1196.09 120.81 1195 123 C1193.81 124.61 1192.57 126.19 1191.31 127.75 C1190.25 129.06 1190.25 129.06 1189.16 130.4 C1187.21 132.75 1185.22 135.04 1183.19 137.31 C1180.75 140.06 1178.76 142.76 1177 146 C1176.34 146.99 1175.68 147.98 1175 149 C1174.34 149 1173.68 149 1173 149 C1172.6 149.9 1172.6 149.9 1172.19 150.81 C1170.99 153.01 1169.75 154.25 1168 156 C1167.55 156.76 1167.09 157.53 1166.62 158.31 C1165 161 1165 161 1162.44 164.06 C1160.5 166.39 1159.16 168.25 1158 171 C1157.34 171 1156.68 171 1156 171 C1155.77 171.54 1155.55 172.07 1155.31 172.62 C1153.18 176.49 1150.21 179.67 1147.26 182.92 C1143.52 187.07 1140.58 191.04 1138 196 C1137.34 196 1136.68 196 1136 196 C1135.75 196.54 1135.51 197.07 1135.25 197.62 C1133.69 200.58 1131.97 203.3 1130 206 C1129.34 206 1128.68 206 1128 206 C1127.6 206.9 1127.6 206.9 1127.19 207.81 C1125.99 210.01 1124.75 211.25 1123 213 C1122.55 213.76 1122.1 214.52 1121.64 215.3 C1117.48 222.16 1111.94 228.21 1106.54 234.11 C1104.77 236.28 1103.44 238.59 1102 241 C1100.78 242.63 1099.53 244.23 1098.25 245.81 C1097.55 246.68 1096.85 247.55 1096.12 248.45 C1094.21 250.74 1092.25 252.97 1090.25 255.19 C1087.24 258.57 1085.09 261.99 1083 266 C1082.34 266 1081.68 266 1081 266 C1080.77 266.54 1080.55 267.07 1080.31 267.62 C1078.18 271.49 1075.21 274.67 1072.26 277.92 C1068.52 282.07 1065.58 286.04 1063 291 C1062.34 291 1061.68 291 1061 291 C1060.59 291.87 1060.59 291.87 1060.18 292.75 C1057.65 297.59 1054.2 301.83 1050.31 305.62 C1047.79 308.22 1046.45 310.71 1045 314 C1044.34 314 1043.68 314 1043 314 C1042.75 314.56 1042.51 315.11 1042.25 315.69 C1039.55 320.68 1035.48 324.75 1031.68 328.94 C1029.86 331.18 1028.48 333.52 1027 336 C1025.78 337.63 1024.53 339.23 1023.25 340.81 C1022.55 341.68 1021.85 342.55 1021.12 343.45 C1019.21 345.74 1017.25 347.97 1015.25 350.19 C1012.24 353.57 1010.09 356.99 1008 361 C1007.34 361 1006.68 361 1006 361 C1005.77 361.54 1005.55 362.07 1005.31 362.62 C1003.19 366.46 1000.25 369.61 997.33 372.85 C993.58 377.02 990.38 381.28 987.33 385.98 C985.25 389.14 982.91 391.99 980.38 394.8 C976.75 398.83 973.71 402.8 971.04 407.53 C970.7 408.02 970.35 408.5 970 409 C969.34 409 968.68 409 968 409 C967.75 409.56 967.5 410.11 967.25 410.69 C965.77 413.43 963.98 415.59 962 418 C960.89 419.41 959.79 420.83 958.69 422.25 C958.09 423.02 957.49 423.8 956.87 424.59 C956.25 425.39 955.63 426.18 955 427 C944.96 439.94 944.96 439.94 942.34 442.83 C938.57 447.01 935.6 451 933 456 C932.34 456 931.68 456 931 456 C930.77 456.54 930.55 457.07 930.31 457.62 C928.16 461.52 925.15 464.72 922.19 468.02 C921.26 469.06 921.26 469.06 920.31 470.12 C919.73 470.77 919.15 471.41 918.55 472.07 C917.01 473.98 916.09 475.81 915 478 C913.81 479.61 912.57 481.19 911.31 482.75 C910.25 484.07 910.25 484.07 909.16 485.41 C907.25 487.7 905.3 489.92 903.31 492.12 C900.42 495.37 898.17 498.75 896.04 502.53 C895.7 503.02 895.35 503.5 895 504 C894.34 504 893.68 504 893 504 C892.73 504.6 892.46 505.2 892.19 505.81 C890.99 508.01 889.75 509.25 888 511 C887.32 512.14 887.32 512.14 886.62 513.31 C885.09 515.85 883.38 518.02 881.46 520.26 C879.73 522.32 878.08 524.44 876.44 526.56 C875.84 527.34 875.24 528.11 874.62 528.91 C874.09 529.6 873.55 530.29 873 531 C871.17 533.34 869.33 535.63 867.34 537.83 C863.57 542.01 860.6 546 858 551 C857.34 551 856.68 551 856 551 C855.77 551.54 855.55 552.07 855.31 552.62 C853.16 556.52 850.15 559.72 847.19 563.02 C846.57 563.72 845.95 564.41 845.31 565.12 C844.73 565.77 844.15 566.41 843.55 567.07 C842.01 568.98 841.09 570.81 840 573 C838.81 574.61 837.57 576.19 836.31 577.75 C835.6 578.63 834.89 579.5 834.16 580.4 C832.21 582.75 830.22 585.04 828.19 587.31 C825.75 590.06 823.76 592.76 822 596 C821.34 596.99 820.68 597.98 820 599 C819.34 599 818.68 599 818 599 C817.73 599.6 817.46 600.2 817.19 600.81 C815.99 603.01 814.75 604.25 813 606 C812.55 606.76 812.09 607.53 811.62 608.31 C810 611 810 611 807.44 614.06 C805.5 616.39 804.16 618.25 803 621 C802.34 621 801.68 621 801 621 C800.77 621.54 800.55 622.07 800.31 622.62 C798.18 626.49 795.21 629.67 792.26 632.92 C788.52 637.07 785.58 641.04 783 646 C782.34 646 781.68 646 781 646 C780.75 646.54 780.5 647.07 780.25 647.62 C778.69 650.58 776.97 653.3 775 656 C774.34 656 773.68 656 773 656 C772.73 656.6 772.46 657.2 772.19 657.81 C770.99 660.01 769.75 661.25 768 663 C767.55 663.76 767.1 664.52 766.64 665.3 C762.9 671.47 757.98 676.93 753.19 682.31 C750.75 685.06 748.76 687.76 747 691 C746.34 691.99 745.68 692.98 745 694 C744.34 694 743.68 694 743 694 C742.59 694.87 742.59 694.87 742.18 695.76 C741.01 697.99 739.71 699.87 738.19 701.88 C737.66 702.57 737.13 703.26 736.59 703.98 C735.18 705.77 733.73 707.52 732.25 709.25 C730.42 711.49 729.12 713.36 728 716 C727.34 716 726.68 716 726 716 C725.77 716.54 725.55 717.07 725.31 717.62 C723.18 721.49 720.21 724.67 717.26 727.92 C713.52 732.07 710.58 736.04 708 741 C707.34 741 706.68 741 706 741 C705.74 741.57 705.48 742.13 705.21 742.72 C703.89 745.2 702.36 747.29 700.62 749.5 C699.75 750.63 699.75 750.63 698.85 751.78 C697 754 697 754 694.88 756.08 C692.55 758.46 691.37 760.99 690 764 C689.34 764 688.68 764 688 764 C687.75 764.56 687.5 765.11 687.25 765.69 C684.55 770.68 680.48 774.75 676.68 778.94 C674.86 781.18 673.48 783.52 672 786 C670.78 787.63 669.53 789.23 668.25 790.81 C667.55 791.68 666.85 792.55 666.12 793.45 C664.21 795.74 662.25 797.97 660.25 800.19 C657.24 803.57 655.09 806.99 653 811 C652.34 811 651.68 811 651 811 C650.74 811.56 650.48 812.13 650.22 812.71 C647.65 817.53 644.65 821.08 640 824 C636.95 824.86 633.97 825.18 630.81 825.38 C630.04 825.43 629.27 825.49 628.47 825.54 C624.33 825.62 621.84 825.27 618.64 822.54 C617.77 821.7 616.9 820.86 616 820 C615.01 819.67 614.02 819.34 613 819 C609 813.63 609 813.63 609 811 C608.34 811 607.68 811 607 811 C605.98 809.34 604.98 807.68 604 806 C603.34 805.67 602.68 805.34 602 805 C602 804.01 602 803.02 602 802 C601.34 802 600.68 802 600 802 C597 798.54 597 798.54 597 796 C596.34 796 595.68 796 595 796 C594.67 795.01 594.34 794.02 594 793 C592.36 791.31 590.69 789.65 589 788 C586.83 785.4 584.88 782.82 583 780 C581.21 777.7 579.39 775.44 577.44 773.26 C576.9 772.66 576.37 772.06 575.81 771.44 C575.3 770.88 574.79 770.32 574.27 769.75 C572.88 767.83 572.42 766.31 572 764 C571.34 764 570.68 764 570 764 C569.34 762.35 568.68 760.7 568 759 C567.34 759 566.68 759 566 759 C566 758.34 566 757.68 566 757 C565.34 756.67 564.68 756.34 564 756 C562.98 755.02 561.98 754.02 561 753 C560.34 752.34 559.68 751.68 559 751 C558.37 748.37 558.37 748.37 558 746 C557.42 745.98 556.85 745.96 556.25 745.94 C552.71 744.46 551.65 741.26 550 738 C548.31 734.91 546.83 732.83 544.31 730.31 C543.55 729.55 542.79 728.79 542 728 C542 727.34 542 726.68 542 726 C541.34 726 540.68 726 540 726 C539.67 725.01 539.34 724.02 539 723 C538.15 722.15 537.31 721.31 536.44 720.44 C535.63 719.63 534.83 718.83 534 718 C534 717.34 534 716.68 534 716 C533.34 716 532.68 716 532 716 C530.98 714.34 529.98 712.68 529 711 C528.34 710.67 527.68 710.34 527 710 C527 709.01 527 708.02 527 707 C526.01 706.67 525.02 706.34 524 706 C522.79 704.33 522.79 704.33 521.62 702.25 C519.99 699.48 518.63 697.63 516.31 695.31 C513.91 692.91 513.18 691.12 512 688 C509.23 686.06 509.23 686.06 507 685 C506.04 683.28 505.09 681.57 504.15 679.84 C502.92 677.72 502.92 677.72 500.31 675.31 C498.07 673.07 497.34 672.09 497 669 C496.34 669 495.68 669 495 669 C494.61 668.11 494.22 667.23 493.81 666.31 C491.91 662.84 489.85 660.72 487 658 C483 653.35 483 653.35 483 651 C482.39 650.93 481.79 650.86 481.16 650.78 C478.19 649.71 477.74 648.29 476.38 645.5 C474.86 642.09 474.86 642.09 472 640 C472 639.01 472 638.02 472 637 C471.34 637 470.68 637 470 637 C470 636.34 470 635.68 470 635 C469.01 635 468.02 635 467 635 C467 633.68 467 632.36 467 631 C466.34 631 465.68 631 465 631 C464.67 630.01 464.34 629.02 464 628 C463.15 627.15 462.31 626.31 461.44 625.44 C460.63 624.63 459.83 623.83 459 623 C459 622.34 459 621.68 459 621 C458.01 620.67 457.02 620.34 456 620 C455.3 618.68 454.63 617.35 454 616 C453.34 615.67 452.68 615.34 452 615 C450.99 613.34 449.99 611.67 449 610 C447.69 608.29 446.36 606.6 445 604.94 C438.19 596.56 438.19 596.56 437 593 C434.23 591.06 434.23 591.06 432 590 C430.93 588.44 430.93 588.44 429.88 586.56 C429.35 585.64 429.35 585.64 428.8 584.69 C428 583 428 583 428 581 C427.07 580.94 427.07 580.94 426.12 580.88 C425.42 580.59 424.72 580.3 424 580 C422.75 576.94 422.75 576.94 422 574 C421.34 574 420.68 574 420 574 C419.57 573.05 419.13 572.1 418.69 571.12 C417.21 567.8 417.21 567.8 414 566 C412.98 564.76 412 563.49 411.06 562.19 C409.3 559.77 407.53 557.44 405.62 555.12 C404 553 404 553 404 551 C403.34 551 402.68 551 402 551 C400.98 549.34 399.98 547.68 399 546 C398.34 545.67 397.68 545.34 397 545 C397 544.01 397 543.02 397 542 C396.34 542 395.68 542 395 542 C392 538.54 392 538.54 392 536 C391.34 536 390.68 536 390 536 C389.67 535.01 389.34 534.02 389 533 C388.15 532.15 387.31 531.31 386.44 530.44 C385.63 529.63 384.83 528.83 384 528 C384 527.34 384 526.68 384 526 C383.34 526 382.68 526 382 526 C380.98 524.34 379.98 522.68 379 521 C378.34 520.67 377.68 520.34 377 520 C376.61 519.34 376.22 518.68 375.81 518 C373.64 514.4 371.07 511.25 368.43 507.99 C367 506 367 506 367 504 C366.01 503.67 365.02 503.34 364 503 C363.32 501.34 362.65 499.67 362 498 C359.23 496.06 359.23 496.06 357 495 C355.67 492.72 354.5 490.38 353.32 488.03 C352.1 485.69 352.1 485.69 349 485 C347.68 483.29 347.68 483.29 346.44 481.19 C346.02 480.5 345.61 479.81 345.18 479.11 C344 477 344 477 343.04 474.86 C342 472.67 342 472.67 339 471 C337.81 468.38 337.81 468.38 337 466 C336.34 466 335.68 466 335 466 C333.49 464.32 333.49 464.32 331.88 462.12 C331.34 461.41 330.8 460.69 330.24 459.95 C329 458 329 458 329 456 C328.34 456 327.68 456 327 456 C325.98 454.34 324.98 452.68 324 451 C323.34 450.67 322.68 450.34 322 450 C322 449.01 322 448.02 322 447 C321.34 447 320.68 447 320 447 C320 446.34 320 445.68 320 445 C319.01 445 318.02 445 317 445 C317 443.68 317 442.36 317 441 C316.34 441 315.68 441 315 441 C314.67 440.01 314.34 439.02 314 438 C313.15 437.15 312.31 436.31 311.44 435.44 C310.63 434.63 309.83 433.83 309 433 C309 432.34 309 431.68 309 431 C308.34 431 307.68 431 307 431 C305.98 429.34 304.98 427.68 304 426 C303.34 425.67 302.68 425.34 302 425 C300.37 422.45 298.91 419.83 297.44 417.19 C296.96 416.47 296.49 415.74 296 415 C295.34 415 294.68 415 294 415 C293.6 413.55 293.6 413.55 293.19 412.06 C292.8 411.05 292.4 410.04 292 409 C291.01 408.67 290.02 408.34 289 408 C288.32 406.34 287.65 404.67 287 403 C286.01 402.34 285.02 401.68 284 401 C282.96 399.72 281.96 398.4 281 397.06 C278.73 393.91 276.36 391.25 273.5 388.62 C271.14 386.07 269.51 383.17 268.12 380 C266.97 377.73 266.97 377.73 264.38 375.38 C263.59 374.59 262.81 373.81 262 373 C262 372.34 262 371.68 262 371 C261.34 371 260.68 371 260 371 C259.67 370.01 259.34 369.02 259 368 C258.15 367.15 257.31 366.31 256.44 365.44 C255.63 364.63 254.83 363.83 254 363 C254 362.34 254 361.68 254 361 C253.34 361 252.68 361 252 361 C247 355.64 247 355.64 247 352 C246.34 352 245.68 352 245 352 C242 348.54 242 348.54 242 346 C241.34 346 240.68 346 240 346 C239.67 345.01 239.34 344.02 239 343 C237.73 342.29 237.73 342.29 236.44 341.56 C235.23 340.79 235.23 340.79 234 340 C234 338.68 234 337.36 234 336 C233.34 336 232.68 336 232 336 C230.98 334.34 229.98 332.68 229 331 C228.34 330.67 227.68 330.34 227 330 C225.39 327.47 223.94 324.88 222.5 322.25 C221.14 319.7 221.14 319.7 218 319 C217.67 317.35 217.34 315.7 217 314 C216.34 314 215.68 314 215 314 C214.57 313.05 214.13 312.1 213.69 311.12 C212.21 307.8 212.21 307.8 209 306 C207.96 304.72 206.96 303.4 206 302.06 C203.73 298.91 201.36 296.25 198.5 293.62 C196.14 291.07 194.51 288.17 193.12 285 C191.97 282.73 191.97 282.73 189.38 280.38 C188.59 279.59 187.81 278.81 187 278 C187 277.34 187 276.68 187 276 C186.01 275.67 185.02 275.34 184 275 C184 274.01 184 273.02 184 272 C183.01 271.67 182.02 271.34 181 271 C179.81 268.44 179.81 268.44 179 266 C178.34 266 177.68 266 177 266 C175.98 264.34 174.98 262.68 174 261 C173.34 260.67 172.68 260.34 172 260 C172 259.01 172 258.02 172 257 C171.34 257 170.68 257 170 257 C167 253.54 167 253.54 167 251 C166.34 251 165.68 251 165 251 C164.67 250.01 164.34 249.02 164 248 C162.36 246.31 160.69 244.65 159 243 C156.83 240.4 154.88 237.82 153 235 C151.21 232.7 149.39 230.44 147.44 228.26 C146.9 227.66 146.37 227.06 145.81 226.44 C145.05 225.6 145.05 225.6 144.27 224.75 C142.88 222.83 142.42 221.31 142 219 C141.34 219 140.68 219 140 219 C139.01 216.52 139.01 216.52 138 214 C137.34 214 136.68 214 136 214 C136 213.34 136 212.68 136 212 C135.34 211.67 134.68 211.34 134 211 C132.98 210.02 131.98 209.02 131 208 C130.34 207.34 129.68 206.68 129 206 C127.97 204.02 126.96 202.02 126 200 C125.34 200 124.68 200 124 200 C123.4 198.95 122.8 197.9 122.19 196.81 C121.82 196.17 121.45 195.53 121.07 194.87 C120.22 193.38 119.39 191.88 118.56 190.38 C116.99 187.81 116.99 187.81 114.31 185.31 C113.55 184.55 112.79 183.79 112 183 C112 182.34 112 181.68 112 181 C111.34 181 110.68 181 110 181 C109.67 180.01 109.34 179.02 109 178 C108.15 177.15 107.31 176.31 106.44 175.44 C105.23 174.23 105.23 174.23 104 173 C104 172.34 104 171.68 104 171 C103.34 171 102.68 171 102 171 C100.98 169.34 99.98 167.68 99 166 C98.34 165.67 97.68 165.34 97 165 C97 164.01 97 163.02 97 162 C96.01 161.67 95.02 161.34 94 161 C92.79 159.33 92.79 159.33 91.62 157.25 C89.47 153.61 87.04 150.96 84 148 C83.08 146.77 82.19 145.51 81.31 144.25 C79.38 140.99 79.38 140.99 77 140 C76.04 138.28 75.09 136.57 74.15 134.84 C72.92 132.72 72.92 132.72 70.31 130.31 C68.07 128.07 67.34 127.09 67 124 C66.34 124 65.68 124 65 124 C64.41 122.67 64.41 122.67 63.81 121.31 C61.91 117.84 59.85 115.72 57 113 C53 108.35 53 108.35 53 106 C52.39 105.93 51.79 105.86 51.16 105.78 C48.19 104.71 47.74 103.29 46.38 100.5 C44.86 97.09 44.86 97.09 42 95 C42 94.01 42 93.02 42 92 C41.34 92 40.68 92 40 92 C40 91.34 40 90.68 40 90 C39.01 89.67 38.02 89.34 37 89 C37 88.01 37 87.02 37 86 C36.34 86 35.68 86 35 86 C34.67 85.01 34.34 84.02 34 83 C33.15 82.15 32.31 81.31 31.44 80.44 C30.63 79.63 29.83 78.83 29 78 C29 77.34 29 76.68 29 76 C28.34 76 27.68 76 27 76 C26.01 74.02 25.02 72.04 24 70 C23.34 70 22.68 70 22 70 C20.96 68.36 19.97 66.68 19 65 C17.69 63.29 16.36 61.6 15 59.94 C8.19 51.56 8.19 51.56 7 48 C4.23 46.06 4.23 46.06 2 45 C0.93 43.44 0.93 43.44 -0.12 41.56 C-0.48 40.95 -0.83 40.33 -1.2 39.69 C-2 38 -2 38 -2 36 C-2.62 35.92 -3.24 35.83 -3.88 35.75 C-6 35 -6 35 -7.25 33.12 C-8 31 -8 31 -8 28 C-8.66 28 -9.32 28 -10 28 C-10.08 25.27 -10.14 22.54 -10.19 19.81 C-10.21 19.04 -10.24 18.27 -10.26 17.48 C-10.32 12.78 -9.99 9.85 -7 6 C-6.34 5.34 -5.68 4.68 -5 4 C-4.67 3.34 -4.34 2.68 -4 2 C-2.68 2 -1.36 2 0 2 C0 1.34 0 0.68 0 0 Z " transform="translate(10 227)" class="color000100 svgShape"></path><path fill="#fae8c0" d="M0 0 C3.96 0 7.92 0 12 0 C12 0.33 12 0.66 12 1 C8.04 1 4.08 1 0 1 C0 0.67 0 0.34 0 0 Z " transform="translate(634 1052)" class="colorFDFDFD svgShape"></path><path fill="#c89b39" class="color000100 svgShape"></path><path fill="#c89b39" class="color000100 svgShape"></path><path fill="#c89b39" class="color000100 svgShape"></path><path fill="#fae8c0" class="colorFDFDFD svgShape"></path><path fill="#c89b39" class="color000100 svgShape"></path><path fill="#c89b39" class="color000100 svgShape"></path><path fill="#fae8c0" class="colorFDFDFD svgShape"></path><path fill="#c89b39" class="color000100 svgShape"></path><path fill="#c89b39" class="color000100 svgShape"></path><path fill="#c89b39" class="color000100 svgShape"></path><path fill="#c89b39" class="color000100 svgShape"></path><path fill="#c89b39" class="color000100 svgShape"></path><path fill="#c89b39" class="color000100 svgShape"></path><path fill="#c89b39" class="color000100 svgShape"></path><path fill="#c89b39" class="color000100 svgShape"></path><path fill="#fae8c0" class="colorFDFDFD svgShape"></path><path fill="#c89b39" class="color000100 svgShape"></path><path fill="#c89b39" class="color000100 svgShape"></path><path fill="#c89b39" class="color000100 svgShape"></path><path fill="#c89b39" class="color000100 svgShape"></path></svg></g></svg>